<svg xmlns="http://www.w3.org/2000/svg" version="1.1" xmlns:xlink="http://www.w3.org/1999/xlink" xmlns:svgjs="http://svgjs.com/svgjs" width="1920" height="1080" preserveAspectRatio="none" viewBox="0 0 1920 1080"><g mask="url(&quot;#SvgjsMask1115&quot;)" fill="none"><rect width="1920" height="1080" x="0" y="0" fill="rgba(20, 54, 89, 1)"></rect><path d="M2080 1080L0 1080 L0 284.98Q71.52 260.5, 96 332.02Q240.06 316.08, 256 460.14Q395.88 440.02, 416 579.91Q505.22 509.13, 576 598.34Q665.88 528.22, 736 618.1Q756.09 542.19, 832 562.29Q801.62 371.9, 992 341.52Q1027.96 217.48, 1152 253.44Q1206.96 212.4, 1248 267.37Q1307.27 166.64, 1408 225.92Q1533.87 191.78, 1568 317.65Q1696.95 350.6, 1664 479.54Q1799.22 454.76, 1824 589.99Q1865.94 535.93, 1920 577.88Q1976.99 474.88, 2080 531.87z" fill="rgba(18, 70, 123, 1)"></path><path d="M1984 1080L0 1080 L0 515Q155.75 574.75, 96 730.51Q249.1 723.61, 256 876.7Q300.57 761.27, 416 805.83Q467.03 696.86, 576 747.89Q621.09 632.98, 736 678.07Q749.27 595.34, 832 608.61Q859.89 540.5, 928 568.39Q944.88 489.26, 1024 506.14Q1079.09 465.22, 1120 520.31Q1193.09 497.4, 1216 570.49Q1305.1 563.59, 1312 652.68Q1429.7 674.38, 1408 792.08Q1370.36 594.44, 1568 556.81Q1633.53 462.34, 1728 527.86Q1872.84 512.7, 1888 657.55Q1889.51 563.05, 1984 564.56z" fill="rgba(40, 96, 157, 1)"></path><path d="M2048 1080L0 1080 L0 858.73Q179.63 942.37, 96 1122Q32.91 962.91, 192 899.82Q239.32 787.14, 352 834.47Q406.82 793.29, 448 848.11Q483.34 787.45, 544 822.79Q612.14 730.93, 704 799.07Q854.01 789.09, 864 939.1Q908.08 823.18, 1024 867.26Q1084.88 768.13, 1184 829.01Q1298 783.01, 1344 897.02Q1510 967.02, 1440 1133.02Q1345.88 942.89, 1536 848.77Q1785.14 937.91, 1696 1187.06Q1680.38 1075.43, 1792 1059.81Q1741.5 913.31, 1888 862.81Q1935.44 750.25, 2048 797.7z" fill="rgba(229, 241, 244, 1)"></path></g><defs><mask id="SvgjsMask1115"><rect width="1920" height="1080" fill="#ffffff"></rect></mask></defs></svg>