<svg xmlns="http://www.w3.org/2000/svg" version="1.1" xmlns:xlink="http://www.w3.org/1999/xlink" xmlns:svgjs="http://svgjs.com/svgjs" width="1920" height="1080" preserveAspectRatio="none" viewBox="0 0 1920 1080"><g mask="url(&quot;#SvgjsMask1003&quot;)" fill="none"><rect width="1920" height="1080" x="0" y="0" fill="rgba(61, 142, 239, 1)"></rect><path d="M 0,153 C 96,187.4 288,309.6 480,325 C 672,340.4 768,210.2 960,230 C 1152,249.8 1248,421.4 1440,424 C 1632,426.6 1824,279.2 1920,243L1920 1080L0 1080z" fill="rgba(40, 96, 157, 1)"></path><path d="M 0,991 C 128,943.4 384,750.6 640,753 C 896,755.4 1024,1028 1280,1003 C 1536,978 1792,703 1920,628L1920 1080L0 1080z" fill="rgba(22, 62, 105, 1)"></path></g><defs><mask id="SvgjsMask1003"><rect width="1920" height="1080" fill="#ffffff"></rect></mask></defs></svg>