<svg xmlns="http://www.w3.org/2000/svg" version="1.1" xmlns:xlink="http://www.w3.org/1999/xlink" xmlns:svgjs="http://svgjs.com/svgjs" width="1920" height="1080" preserveAspectRatio="none" viewBox="0 0 1920 1080">
    <g mask="url(&quot;#SvgjsMask1022&quot;)" fill="none">
        <rect width="1920" height="1080" x="0" y="0" fill="#0e2a47"></rect>
        <path d="M896 950L895 1507" stroke-width="6" stroke="url(#SvgjsLinearGradient1023)" stroke-linecap="round" class="Down"></path>
        <path d="M806 841L805 517" stroke-width="10" stroke="url(#SvgjsLinearGradient1023)" stroke-linecap="round" class="Down"></path>
        <path d="M391 770L390 460" stroke-width="10" stroke="url(#SvgjsLinearGradient1023)" stroke-linecap="round" class="Down"></path>
        <path d="M535 660L534 332" stroke-width="6" stroke="url(#SvgjsLinearGradient1024)" stroke-linecap="round" class="Up"></path>
        <path d="M119 296L118 583" stroke-width="8" stroke="url(#SvgjsLinearGradient1024)" stroke-linecap="round" class="Up"></path>
        <path d="M898 694L897 996" stroke-width="10" stroke="url(#SvgjsLinearGradient1023)" stroke-linecap="round" class="Down"></path>
        <path d="M156 484L155 11" stroke-width="6" stroke="url(#SvgjsLinearGradient1024)" stroke-linecap="round" class="Up"></path>
        <path d="M852 598L851 1406" stroke-width="6" stroke="url(#SvgjsLinearGradient1023)" stroke-linecap="round" class="Down"></path>
        <path d="M345 830L344 1291" stroke-width="6" stroke="url(#SvgjsLinearGradient1023)" stroke-linecap="round" class="Down"></path>
        <path d="M31 838L30 273" stroke-width="10" stroke="url(#SvgjsLinearGradient1023)" stroke-linecap="round" class="Down"></path>
        <path d="M11 588L10 -212" stroke-width="6" stroke="url(#SvgjsLinearGradient1023)" stroke-linecap="round" class="Down"></path>
        <path d="M111 1066L110 1676" stroke-width="10" stroke="url(#SvgjsLinearGradient1023)" stroke-linecap="round" class="Down"></path>
        <path d="M669 714L668 49" stroke-width="8" stroke="url(#SvgjsLinearGradient1023)" stroke-linecap="round" class="Down"></path>
        <path d="M1696 627L1695 18" stroke-width="6" stroke="url(#SvgjsLinearGradient1023)" stroke-linecap="round" class="Down"></path>
        <path d="M1216 50L1215 -681" stroke-width="10" stroke="url(#SvgjsLinearGradient1024)" stroke-linecap="round" class="Up"></path>
        <path d="M695 450L694 1043" stroke-width="6" stroke="url(#SvgjsLinearGradient1024)" stroke-linecap="round" class="Up"></path>
        <path d="M244 914L243 556" stroke-width="8" stroke="url(#SvgjsLinearGradient1023)" stroke-linecap="round" class="Down"></path>
        <path d="M35 169L34 -285" stroke-width="6" stroke="url(#SvgjsLinearGradient1023)" stroke-linecap="round" class="Down"></path>
        <path d="M507 577L506 1159" stroke-width="6" stroke="url(#SvgjsLinearGradient1023)" stroke-linecap="round" class="Down"></path>
        <path d="M759 65L758 -464" stroke-width="10" stroke="url(#SvgjsLinearGradient1024)" stroke-linecap="round" class="Up"></path>
        <path d="M234 594L233 -133" stroke-width="10" stroke="url(#SvgjsLinearGradient1024)" stroke-linecap="round" class="Up"></path>
        <path d="M479 513L478 813" stroke-width="8" stroke="url(#SvgjsLinearGradient1024)" stroke-linecap="round" class="Up"></path>
        <path d="M845 377L844 -336" stroke-width="8" stroke="url(#SvgjsLinearGradient1024)" stroke-linecap="round" class="Up"></path>
        <path d="M1918 145L1917 -174" stroke-width="8" stroke="url(#SvgjsLinearGradient1024)" stroke-linecap="round" class="Up"></path>
        <path d="M254 398L253 -227" stroke-width="8" stroke="url(#SvgjsLinearGradient1024)" stroke-linecap="round" class="Up"></path>
        <path d="M777 218L776 -501" stroke-width="8" stroke="url(#SvgjsLinearGradient1023)" stroke-linecap="round" class="Down"></path>
        <path d="M1281 204L1280 -432" stroke-width="8" stroke="url(#SvgjsLinearGradient1024)" stroke-linecap="round" class="Up"></path>
        <path d="M969 335L968 1067" stroke-width="8" stroke="url(#SvgjsLinearGradient1023)" stroke-linecap="round" class="Down"></path>
        <path d="M1751 872L1750 1296" stroke-width="6" stroke="url(#SvgjsLinearGradient1024)" stroke-linecap="round" class="Up"></path>
        <path d="M1475 238L1474 -375" stroke-width="6" stroke="url(#SvgjsLinearGradient1024)" stroke-linecap="round" class="Up"></path>
        <path d="M1777 792L1776 1415" stroke-width="10" stroke="url(#SvgjsLinearGradient1024)" stroke-linecap="round" class="Up"></path>
        <path d="M1104 236L1103 -346" stroke-width="8" stroke="url(#SvgjsLinearGradient1024)" stroke-linecap="round" class="Up"></path>
        <path d="M1488 945L1487 361" stroke-width="8" stroke="url(#SvgjsLinearGradient1024)" stroke-linecap="round" class="Up"></path>
        <path d="M642 825L641 134" stroke-width="8" stroke="url(#SvgjsLinearGradient1024)" stroke-linecap="round" class="Up"></path>
        <path d="M1518 864L1517 1272" stroke-width="10" stroke="url(#SvgjsLinearGradient1023)" stroke-linecap="round" class="Down"></path>
        <path d="M725 957L724 1544" stroke-width="10" stroke="url(#SvgjsLinearGradient1023)" stroke-linecap="round" class="Down"></path>
        <path d="M233 651L232 1093" stroke-width="10" stroke="url(#SvgjsLinearGradient1024)" stroke-linecap="round" class="Up"></path>
        <path d="M1289 642L1288 1409" stroke-width="10" stroke="url(#SvgjsLinearGradient1023)" stroke-linecap="round" class="Down"></path>
        <path d="M1570 244L1569 -331" stroke-width="6" stroke="url(#SvgjsLinearGradient1024)" stroke-linecap="round" class="Up"></path>
        <path d="M1635 580L1634 1035" stroke-width="6" stroke="url(#SvgjsLinearGradient1023)" stroke-linecap="round" class="Down"></path>
        <path d="M1516 241L1515 555" stroke-width="8" stroke="url(#SvgjsLinearGradient1024)" stroke-linecap="round" class="Up"></path>
        <path d="M653 17L652 -699" stroke-width="10" stroke="url(#SvgjsLinearGradient1024)" stroke-linecap="round" class="Up"></path>
        <path d="M979 20L978 -491" stroke-width="6" stroke="url(#SvgjsLinearGradient1024)" stroke-linecap="round" class="Up"></path>
        <path d="M869 645L868 232" stroke-width="8" stroke="url(#SvgjsLinearGradient1024)" stroke-linecap="round" class="Up"></path>
        <path d="M1859 1059L1858 1760" stroke-width="10" stroke="url(#SvgjsLinearGradient1023)" stroke-linecap="round" class="Down"></path>
        <path d="M1544 88L1543 -358" stroke-width="8" stroke="url(#SvgjsLinearGradient1023)" stroke-linecap="round" class="Down"></path>
        <path d="M1810 741L1809 1500" stroke-width="6" stroke="url(#SvgjsLinearGradient1023)" stroke-linecap="round" class="Down"></path>
        <path d="M1229 154L1228 -123" stroke-width="8" stroke="url(#SvgjsLinearGradient1023)" stroke-linecap="round" class="Down"></path>
    </g>
    <defs>
        <mask id="SvgjsMask1022">
            <rect width="1920" height="1080" fill="#ffffff"></rect>
        </mask>
        <linearGradient x1="0%" y1="0%" x2="0%" y2="100%" id="SvgjsLinearGradient1023">
            <stop stop-color="rgba(28, 83, 142, 0)" offset="0"></stop>
            <stop stop-color="#1c538e" offset="1"></stop>
        </linearGradient>
        <linearGradient x1="0%" y1="100%" x2="0%" y2="0%" id="SvgjsLinearGradient1024">
            <stop stop-color="rgba(28, 83, 142, 0)" offset="0"></stop>
            <stop stop-color="#1c538e" offset="1"></stop>
        </linearGradient>
    </defs>
</svg>