<svg id="visual" viewBox="0 0 1920 1080" width="1920" height="1080" xmlns="http://www.w3.org/2000/svg" xmlns:xlink="http://www.w3.org/1999/xlink" version="1.1"><g stroke-width="1" stroke-linejoin="bevel"><path d="M871.3 502L860.3 378L663 351Z" fill="#19435d" stroke="#19435d"></path><path d="M663 351L631 539L871.3 502Z" fill="#1d4e6b" stroke="#1d4e6b"></path><path d="M1093.7 320L868.3 216L860.3 378Z" fill="#297ea6" stroke="#297ea6"></path><path d="M860.3 378L868.3 216L663 351Z" fill="#112e42" stroke="#112e42"></path><path d="M631 539L816.3 750L871.3 502Z" fill="#1d4e6b" stroke="#1d4e6b"></path><path d="M617 702L816.3 750L631 539Z" fill="#277297" stroke="#277297"></path><path d="M868.3 216L629 161L663 351Z" fill="#112e42" stroke="#112e42"></path><path d="M396.7 365L418.7 535L631 539Z" fill="#081a28" stroke="#081a28"></path><path d="M631 539L418.7 535L617 702Z" fill="#277297" stroke="#277297"></path><path d="M396.7 365L631 539L663 351Z" fill="#112e42" stroke="#112e42"></path><path d="M1037.7 731L1088.7 553L871.3 502Z" fill="#112e42" stroke="#112e42"></path><path d="M871.3 502L1093.7 320L860.3 378Z" fill="#00101c" stroke="#00101c"></path><path d="M442.7 198L396.7 365L663 351Z" fill="#19435d" stroke="#19435d"></path><path d="M1088.7 553L1093.7 320L871.3 502Z" fill="#081a28" stroke="#081a28"></path><path d="M629 161L442.7 198L663 351Z" fill="#277297" stroke="#277297"></path><path d="M816.3 750L1037.7 731L871.3 502Z" fill="#277297" stroke="#277297"></path><path d="M418.7 535L444.7 733L617 702Z" fill="#15384f" stroke="#15384f"></path><path d="M617 702L668 933L816.3 750Z" fill="#205a7a" stroke="#205a7a"></path><path d="M1093.7 320L1065.7 179L868.3 216Z" fill="#277297" stroke="#277297"></path><path d="M868.3 216L677 0L629 161Z" fill="#19435d" stroke="#19435d"></path><path d="M876.3 0L677 0L868.3 216Z" fill="#297ea6" stroke="#297ea6"></path><path d="M629 161L443.7 0L442.7 198Z" fill="#15384f" stroke="#15384f"></path><path d="M1065.7 179L876.3 0L868.3 216Z" fill="#1d4e6b" stroke="#1d4e6b"></path><path d="M435.7 871L668 933L617 702Z" fill="#297ea6" stroke="#297ea6"></path><path d="M816.3 750L892.3 925L1037.7 731Z" fill="#19435d" stroke="#19435d"></path><path d="M668 933L892.3 925L816.3 750Z" fill="#15384f" stroke="#15384f"></path><path d="M1294 520L1248 399L1088.7 553Z" fill="#112e42" stroke="#112e42"></path><path d="M1088.7 553L1248 399L1093.7 320Z" fill="#277297" stroke="#277297"></path><path d="M1093.7 320L1319 195L1065.7 179Z" fill="#00101c" stroke="#00101c"></path><path d="M444.7 733L435.7 871L617 702Z" fill="#19435d" stroke="#19435d"></path><path d="M189.3 743L435.7 871L444.7 733Z" fill="#00101c" stroke="#00101c"></path><path d="M204.3 562L444.7 733L418.7 535Z" fill="#205a7a" stroke="#205a7a"></path><path d="M677 0L443.7 0L629 161Z" fill="#1d4e6b" stroke="#1d4e6b"></path><path d="M174.3 340L204.3 562L396.7 365Z" fill="#205a7a" stroke="#205a7a"></path><path d="M1246 693L1294 520L1088.7 553Z" fill="#081a28" stroke="#081a28"></path><path d="M1246 693L1088.7 553L1037.7 731Z" fill="#15384f" stroke="#15384f"></path><path d="M1078.7 906L1246 693L1037.7 731Z" fill="#1d4e6b" stroke="#1d4e6b"></path><path d="M235.3 183L396.7 365L442.7 198Z" fill="#081a28" stroke="#081a28"></path><path d="M396.7 365L204.3 562L418.7 535Z" fill="#297ea6" stroke="#297ea6"></path><path d="M892.3 925L1078.7 906L1037.7 731Z" fill="#297ea6" stroke="#297ea6"></path><path d="M1319 195L1104.7 0L1065.7 179Z" fill="#112e42" stroke="#112e42"></path><path d="M1065.7 179L1104.7 0L876.3 0Z" fill="#112e42" stroke="#112e42"></path><path d="M1319 195L1093.7 320L1248 399Z" fill="#277297" stroke="#277297"></path><path d="M443.7 0L235.3 183L442.7 198Z" fill="#1d4e6b" stroke="#1d4e6b"></path><path d="M235.3 183L174.3 340L396.7 365Z" fill="#19435d" stroke="#19435d"></path><path d="M1473.3 376L1319 195L1248 399Z" fill="#15384f" stroke="#15384f"></path><path d="M0 710L189.3 743L204.3 562Z" fill="#1d4e6b" stroke="#1d4e6b"></path><path d="M204.3 562L189.3 743L444.7 733Z" fill="#0c2435" stroke="#0c2435"></path><path d="M401.7 1080L648 1080L435.7 871Z" fill="#081a28" stroke="#081a28"></path><path d="M435.7 871L648 1080L668 933Z" fill="#277297" stroke="#277297"></path><path d="M668 933L877.3 1080L892.3 925Z" fill="#0c2435" stroke="#0c2435"></path><path d="M892.3 925L1082.7 1080L1078.7 906Z" fill="#00101c" stroke="#00101c"></path><path d="M648 1080L877.3 1080L668 933Z" fill="#15384f" stroke="#15384f"></path><path d="M1082.7 1080L1278 901L1078.7 906Z" fill="#0c2435" stroke="#0c2435"></path><path d="M1078.7 906L1278 901L1246 693Z" fill="#19435d" stroke="#19435d"></path><path d="M1508.3 552L1473.3 376L1294 520Z" fill="#112e42" stroke="#112e42"></path><path d="M1294 520L1473.3 376L1248 399Z" fill="#1d4e6b" stroke="#1d4e6b"></path><path d="M443.7 0L220.3 0L235.3 183Z" fill="#15384f" stroke="#15384f"></path><path d="M0 201L0 341L174.3 340Z" fill="#205a7a" stroke="#205a7a"></path><path d="M877.3 1080L1082.7 1080L892.3 925Z" fill="#246688" stroke="#246688"></path><path d="M190.3 914L401.7 1080L435.7 871Z" fill="#297ea6" stroke="#297ea6"></path><path d="M1319 195L1316 0L1104.7 0Z" fill="#246688" stroke="#246688"></path><path d="M189.3 743L190.3 914L435.7 871Z" fill="#19435d" stroke="#19435d"></path><path d="M0 904L190.3 914L189.3 743Z" fill="#15384f" stroke="#15384f"></path><path d="M1508.3 552L1294 520L1489.3 682Z" fill="#246688" stroke="#246688"></path><path d="M1319 195L1483.3 150L1316 0Z" fill="#0c2435" stroke="#0c2435"></path><path d="M0 341L0 506L174.3 340Z" fill="#19435d" stroke="#19435d"></path><path d="M174.3 340L0 506L204.3 562Z" fill="#1d4e6b" stroke="#1d4e6b"></path><path d="M0 201L174.3 340L235.3 183Z" fill="#19435d" stroke="#19435d"></path><path d="M1489.3 682L1294 520L1246 693Z" fill="#15384f" stroke="#15384f"></path><path d="M1463.3 865L1489.3 682L1246 693Z" fill="#19435d" stroke="#19435d"></path><path d="M220.3 0L0 201L235.3 183Z" fill="#0c2435" stroke="#0c2435"></path><path d="M1693.7 196L1483.3 150L1473.3 376Z" fill="#112e42" stroke="#112e42"></path><path d="M1473.3 376L1483.3 150L1319 195Z" fill="#205a7a" stroke="#205a7a"></path><path d="M0 506L0 710L204.3 562Z" fill="#19435d" stroke="#19435d"></path><path d="M0 1080L239.3 1080L190.3 914Z" fill="#277297" stroke="#277297"></path><path d="M190.3 914L239.3 1080L401.7 1080Z" fill="#0c2435" stroke="#0c2435"></path><path d="M1290 1080L1463.3 865L1278 901Z" fill="#277297" stroke="#277297"></path><path d="M1278 901L1463.3 865L1246 693Z" fill="#112e42" stroke="#112e42"></path><path d="M1737.7 686L1708.7 517L1508.3 552Z" fill="#081a28" stroke="#081a28"></path><path d="M1082.7 1080L1290 1080L1278 901Z" fill="#00101c" stroke="#00101c"></path><path d="M1671.7 0L1484.3 0L1483.3 150Z" fill="#081a28" stroke="#081a28"></path><path d="M1483.3 150L1484.3 0L1316 0Z" fill="#15384f" stroke="#15384f"></path><path d="M220.3 0L0 0L0 201Z" fill="#205a7a" stroke="#205a7a"></path><path d="M0 710L0 904L189.3 743Z" fill="#246688" stroke="#246688"></path><path d="M1737.7 686L1508.3 552L1489.3 682Z" fill="#205a7a" stroke="#205a7a"></path><path d="M1508.3 552L1708.7 517L1473.3 376Z" fill="#112e42" stroke="#112e42"></path><path d="M1737.7 336L1693.7 196L1473.3 376Z" fill="#00101c" stroke="#00101c"></path><path d="M0 904L0 1080L190.3 914Z" fill="#00101c" stroke="#00101c"></path><path d="M1708.7 517L1737.7 336L1473.3 376Z" fill="#246688" stroke="#246688"></path><path d="M1290 1080L1530.3 1080L1463.3 865Z" fill="#277297" stroke="#277297"></path><path d="M1667.7 900L1737.7 686L1489.3 682Z" fill="#00101c" stroke="#00101c"></path><path d="M1667.7 900L1489.3 682L1463.3 865Z" fill="#00101c" stroke="#00101c"></path><path d="M1708.7 517L1920 549L1737.7 336Z" fill="#112e42" stroke="#112e42"></path><path d="M1530.3 1080L1667.7 900L1463.3 865Z" fill="#277297" stroke="#277297"></path><path d="M1693.7 196L1671.7 0L1483.3 150Z" fill="#081a28" stroke="#081a28"></path><path d="M1920 155L1671.7 0L1693.7 196Z" fill="#15384f" stroke="#15384f"></path><path d="M1530.3 1080L1738.7 1080L1667.7 900Z" fill="#00101c" stroke="#00101c"></path><path d="M1667.7 900L1920 750L1737.7 686Z" fill="#00101c" stroke="#00101c"></path><path d="M1737.7 686L1920 549L1708.7 517Z" fill="#1d4e6b" stroke="#1d4e6b"></path><path d="M1920 750L1920 549L1737.7 686Z" fill="#0c2435" stroke="#0c2435"></path><path d="M1737.7 336L1920 155L1693.7 196Z" fill="#297ea6" stroke="#297ea6"></path><path d="M1920 549L1920 331L1737.7 336Z" fill="#277297" stroke="#277297"></path><path d="M1920 331L1920 155L1737.7 336Z" fill="#205a7a" stroke="#205a7a"></path><path d="M1920 909L1920 750L1667.7 900Z" fill="#00101c" stroke="#00101c"></path><path d="M1920 155L1920 0L1671.7 0Z" fill="#19435d" stroke="#19435d"></path><path d="M1738.7 1080L1920 909L1667.7 900Z" fill="#246688" stroke="#246688"></path><path d="M1738.7 1080L1920 1080L1920 909Z" fill="#246688" stroke="#246688"></path></g></svg>