<svg xmlns="http://www.w3.org/2000/svg" version="1.1" xmlns:xlink="http://www.w3.org/1999/xlink" xmlns:svgjs="http://svgjs.com/svgjs" width="1920" height="1080" preserveAspectRatio="none" viewBox="0 0 1920 1080"><g mask="url(&quot;#SvgjsMask1034&quot;)" fill="none"><rect width="1920" height="1080" x="0" y="0" fill="#0e2a47"></rect><path d="M1875 332L1305 902" stroke-width="10" stroke="url(#SvgjsLinearGradient1035)" stroke-linecap="round" class="TopRight"></path><path d="M1183 974L1601 556" stroke-width="10" stroke="url(#SvgjsLinearGradient1036)" stroke-linecap="round" class="BottomLeft"></path><path d="M805 623L1378 50" stroke-width="10" stroke="url(#SvgjsLinearGradient1035)" stroke-linecap="round" class="TopRight"></path><path d="M1219 509L1770 -42" stroke-width="6" stroke="url(#SvgjsLinearGradient1036)" stroke-linecap="round" class="BottomLeft"></path><path d="M825 743L26 1542" stroke-width="6" stroke="url(#SvgjsLinearGradient1035)" stroke-linecap="round" class="TopRight"></path><path d="M611 293L18 886" stroke-width="10" stroke="url(#SvgjsLinearGradient1035)" stroke-linecap="round" class="TopRight"></path><path d="M1720 572L2099 193" stroke-width="10" stroke="url(#SvgjsLinearGradient1035)" stroke-linecap="round" class="TopRight"></path><path d="M485 318L49 754" stroke-width="6" stroke="url(#SvgjsLinearGradient1036)" stroke-linecap="round" class="BottomLeft"></path><path d="M1174 132L381 925" stroke-width="6" stroke="url(#SvgjsLinearGradient1035)" stroke-linecap="round" class="TopRight"></path><path d="M1578 357L2335 -400" stroke-width="8" stroke="url(#SvgjsLinearGradient1036)" stroke-linecap="round" class="BottomLeft"></path><path d="M109 320L-314 743" stroke-width="8" stroke="url(#SvgjsLinearGradient1035)" stroke-linecap="round" class="TopRight"></path><path d="M1320 535L1916 -61" stroke-width="6" stroke="url(#SvgjsLinearGradient1036)" stroke-linecap="round" class="BottomLeft"></path><path d="M1771 32L1394 409" stroke-width="10" stroke="url(#SvgjsLinearGradient1036)" stroke-linecap="round" class="BottomLeft"></path><path d="M750 487L463 774" stroke-width="10" stroke="url(#SvgjsLinearGradient1036)" stroke-linecap="round" class="BottomLeft"></path><path d="M299 800L-445 1544" stroke-width="6" stroke="url(#SvgjsLinearGradient1036)" stroke-linecap="round" class="BottomLeft"></path><path d="M1293 639L574 1358" stroke-width="8" stroke="url(#SvgjsLinearGradient1035)" stroke-linecap="round" class="TopRight"></path><path d="M1451 109L1930 -370" stroke-width="10" stroke="url(#SvgjsLinearGradient1036)" stroke-linecap="round" class="BottomLeft"></path><path d="M1582 352L1958 -24" stroke-width="8" stroke="url(#SvgjsLinearGradient1035)" stroke-linecap="round" class="TopRight"></path><path d="M1516 921L916 1521" stroke-width="8" stroke="url(#SvgjsLinearGradient1035)" stroke-linecap="round" class="TopRight"></path><path d="M839 683L146 1376" stroke-width="6" stroke="url(#SvgjsLinearGradient1035)" stroke-linecap="round" class="TopRight"></path><path d="M1306 169L2054 -579" stroke-width="6" stroke="url(#SvgjsLinearGradient1036)" stroke-linecap="round" class="BottomLeft"></path><path d="M1824 798L2548 74" stroke-width="6" stroke="url(#SvgjsLinearGradient1036)" stroke-linecap="round" class="BottomLeft"></path><path d="M1371 375L2082 -336" stroke-width="6" stroke="url(#SvgjsLinearGradient1036)" stroke-linecap="round" class="BottomLeft"></path><path d="M298 955L-199 1452" stroke-width="10" stroke="url(#SvgjsLinearGradient1036)" stroke-linecap="round" class="BottomLeft"></path><path d="M493 935L935 493" stroke-width="10" stroke="url(#SvgjsLinearGradient1036)" stroke-linecap="round" class="BottomLeft"></path><path d="M1637 292L2067 -138" stroke-width="8" stroke="url(#SvgjsLinearGradient1036)" stroke-linecap="round" class="BottomLeft"></path><path d="M1625 755L1187 1193" stroke-width="6" stroke="url(#SvgjsLinearGradient1036)" stroke-linecap="round" class="BottomLeft"></path><path d="M932 550L1294 188" stroke-width="10" stroke="url(#SvgjsLinearGradient1036)" stroke-linecap="round" class="BottomLeft"></path><path d="M52 183L403 -168" stroke-width="6" stroke="url(#SvgjsLinearGradient1035)" stroke-linecap="round" class="TopRight"></path><path d="M112 450L-491 1053" stroke-width="6" stroke="url(#SvgjsLinearGradient1036)" stroke-linecap="round" class="BottomLeft"></path><path d="M355 741L781 315" stroke-width="10" stroke="url(#SvgjsLinearGradient1036)" stroke-linecap="round" class="BottomLeft"></path><path d="M1031 858L306 1583" stroke-width="6" stroke="url(#SvgjsLinearGradient1035)" stroke-linecap="round" class="TopRight"></path><path d="M76 653L-219 948" stroke-width="8" stroke="url(#SvgjsLinearGradient1036)" stroke-linecap="round" class="BottomLeft"></path><path d="M635 798L248 1185" stroke-width="10" stroke="url(#SvgjsLinearGradient1036)" stroke-linecap="round" class="BottomLeft"></path><path d="M434 244L1198 -520" stroke-width="6" stroke="url(#SvgjsLinearGradient1036)" stroke-linecap="round" class="BottomLeft"></path><path d="M241 447L-161 849" stroke-width="8" stroke="url(#SvgjsLinearGradient1035)" stroke-linecap="round" class="TopRight"></path><path d="M303 1021L697 627" stroke-width="8" stroke="url(#SvgjsLinearGradient1036)" stroke-linecap="round" class="BottomLeft"></path><path d="M374 537L830 81" stroke-width="8" stroke="url(#SvgjsLinearGradient1035)" stroke-linecap="round" class="TopRight"></path><path d="M406 939L-187 1532" stroke-width="8" stroke="url(#SvgjsLinearGradient1035)" stroke-linecap="round" class="TopRight"></path><path d="M158 664L540 282" stroke-width="10" stroke="url(#SvgjsLinearGradient1035)" stroke-linecap="round" class="TopRight"></path><path d="M621 106L1050 -323" stroke-width="6" stroke="url(#SvgjsLinearGradient1036)" stroke-linecap="round" class="BottomLeft"></path><path d="M1736 891L1072 1555" stroke-width="8" stroke="url(#SvgjsLinearGradient1036)" stroke-linecap="round" class="BottomLeft"></path><path d="M1232 286L1711 -193" stroke-width="8" stroke="url(#SvgjsLinearGradient1036)" stroke-linecap="round" class="BottomLeft"></path><path d="M1126 897L1497 526" stroke-width="10" stroke="url(#SvgjsLinearGradient1036)" stroke-linecap="round" class="BottomLeft"></path><path d="M1522 1058L1144 1436" stroke-width="6" stroke="url(#SvgjsLinearGradient1036)" stroke-linecap="round" class="BottomLeft"></path><path d="M1649 102L1203 548" stroke-width="10" stroke="url(#SvgjsLinearGradient1036)" stroke-linecap="round" class="BottomLeft"></path><path d="M660 546L-90 1296" stroke-width="6" stroke="url(#SvgjsLinearGradient1036)" stroke-linecap="round" class="BottomLeft"></path><path d="M1305 635L857 1083" stroke-width="10" stroke="url(#SvgjsLinearGradient1035)" stroke-linecap="round" class="TopRight"></path><path d="M333 722L910 145" stroke-width="6" stroke="url(#SvgjsLinearGradient1035)" stroke-linecap="round" class="TopRight"></path><path d="M397 345L990 -248" stroke-width="10" stroke="url(#SvgjsLinearGradient1036)" stroke-linecap="round" class="BottomLeft"></path><path d="M851 627L1251 227" stroke-width="8" stroke="url(#SvgjsLinearGradient1036)" stroke-linecap="round" class="BottomLeft"></path><path d="M131 791L-473 1395" stroke-width="6" stroke="url(#SvgjsLinearGradient1035)" stroke-linecap="round" class="TopRight"></path><path d="M562 29L-39 630" stroke-width="6" stroke="url(#SvgjsLinearGradient1035)" stroke-linecap="round" class="TopRight"></path><path d="M1606 561L2203 -36" stroke-width="8" stroke="url(#SvgjsLinearGradient1035)" stroke-linecap="round" class="TopRight"></path><path d="M1439 132L1150 421" stroke-width="6" stroke="url(#SvgjsLinearGradient1035)" stroke-linecap="round" class="TopRight"></path><path d="M1133 33L1777 -611" stroke-width="10" stroke="url(#SvgjsLinearGradient1036)" stroke-linecap="round" class="BottomLeft"></path></g><defs><mask id="SvgjsMask1034"><rect width="1920" height="1080" fill="#ffffff"></rect></mask><linearGradient x1="0%" y1="100%" x2="100%" y2="0%" id="SvgjsLinearGradient1035"><stop stop-color="rgba(28, 83, 142, 0)" offset="0"></stop><stop stop-color="#1c538e" offset="1"></stop></linearGradient><linearGradient x1="100%" y1="0%" x2="0%" y2="100%" id="SvgjsLinearGradient1036"><stop stop-color="rgba(28, 83, 142, 0)" offset="0"></stop><stop stop-color="#1c538e" offset="1"></stop></linearGradient></defs></svg>