<?xml version="1.0" encoding="utf-8"?>
<!-- Generator: Adobe Illustrator 21.0.1, SVG Export Plug-In . SVG Version: 6.00 Build 0)  -->
<svg version="1.1" id="Livello_1" xmlns="http://www.w3.org/2000/svg" xmlns:xlink="http://www.w3.org/1999/xlink" x="0px" y="0px"
	 viewBox="0 0 500 500" style="enable-background:new 0 0 500 500;" xml:space="preserve">
<style type="text/css">
	.st0{fill:#FFFFFF;}
	.st1{fill:#263238;}
	.st2{fill:#B78876;}
	.st3{fill:#AA6550;}
	.st4{fill:#2574FC;}
	.st5{opacity:0.4;}
	.st6{fill:#E0E0E0;}
	.st7{fill:#FAFAFA;}
	.st8{opacity:0.4;enable-background:new    ;}
	.st9{opacity:0.2;}
	.st10{fill:#455A64;}
</style>
<g id="freepik--background-simple--inject-377">
	<path class="st0" d="M443.7,173.6c-2-33.4-18.4-69.2-42-92.9c-19.3-19.4-47.1-29.6-74.4-28c-23,1.4-45.6,11.2-61.9,27.5
		c-14.1,14.2-23.1,32.7-33.8,49.6s-24.4,33.5-43.3,40.2c-18.4,6.5-38.8,2.7-58.3,4c-25.7,1.7-50.8,12.8-68.7,31.2S33,249.4,34,275.2
		c1,25.9,13.1,50.5,29.9,70.3l0.5,0.6c34.5,41.1,84.8,65.6,138.4,67.6l61.1,2.1c50.3,9.1,103.8-31.6,135.8-71.5
		S446.8,224.6,443.7,173.6z"/>
</g>
<g id="freepik--Table--inject-377">
	<path class="st1" d="M471.4,463.8c0,0.1-99.1,0.3-221.4,0.3S28.6,464,28.6,463.8s99.1-0.3,221.4-0.3S471.4,463.6,471.4,463.8z"/>
</g>
<g id="freepik--Character--inject-377">
	<path class="st2" d="M189.4,118.9l6.6,93.2c1.1,15.2,13.7,27,29,27l0,0c16,0,29.1-13,29.1-29.1c0-0.6,0-1.3-0.1-1.9
		c-0.6-8.9-1.1-16.1-1.1-16.1s22.6-3.5,22.9-26.1c0.2-13-2.1-42.6-4-65.2c-1.3-15.3-14.1-27.1-29.5-27.1h-13.7
		c-23,1.3-40.6,21.1-39.2,44.1C189.3,118.1,189.3,118.5,189.4,118.9z"/>
	<path class="st3" d="M252.8,191.7c0,0-14.3,1.2-29.4-8.4c0,0,6.9,16.2,29.5,14.2L252.8,191.7z"/>
	<path class="st1" d="M264.6,128c0,1.7-1.4,3.2-3.1,3.2c-1.7,0.1-3.2-1.1-3.3-2.8c0,0,0,0,0-0.1c0-1.7,1.4-3.2,3.1-3.3
		C263,125,264.5,126.2,264.6,128L264.6,128z"/>
	<path class="st1" d="M267.7,123.4c-0.4,0.4-2.8-1.4-6.3-1.4s-6,1.7-6.4,1.3c-0.2-0.2,0.2-1,1.3-1.8c1.5-1,3.3-1.6,5.1-1.6
		c1.8,0,3.5,0.6,5,1.6C267.6,122.4,267.9,123.2,267.7,123.4z"/>
	<path class="st1" d="M230.8,128c0,1.7-1.4,3.2-3.1,3.2c-1.7,0.1-3.2-1.1-3.3-2.8c0,0,0,0,0-0.1c0-1.7,1.4-3.2,3.1-3.3
		C229.2,125,230.7,126.2,230.8,128L230.8,128z"/>
	<path class="st1" d="M233.7,124c-0.4,0.4-2.9-1.4-6.3-1.4s-6,1.8-6.4,1.3c-0.2-0.2,0.2-0.9,1.3-1.8c1.5-1,3.3-1.6,5.1-1.6
		s3.5,0.6,5,1.6C233.5,123.1,233.9,123.8,233.7,124z"/>
	<path class="st1" d="M246.2,149.7c0-0.2,2.1-0.6,5.6-1c0.9-0.1,1.7-0.3,1.9-0.9c0.1-0.9-0.1-1.8-0.6-2.6c-0.8-2.1-1.7-4.4-2.6-6.7
		c-3.6-9.6-6.3-17.5-5.9-17.6s3.6,7.5,7.3,17.1c0.9,2.4,1.7,4.6,2.5,6.8c0.3,1,0.9,2.1,0.4,3.5c-0.3,0.6-0.8,1.1-1.4,1.3
		c-0.5,0.1-1,0.2-1.5,0.2C248.4,149.9,246.3,149.9,246.2,149.7z"/>
	<path class="st1" d="M236.1,152.1c0.6,0,0.6,3.7,3.8,6.4s7.2,2.3,7.2,2.8c0.1,0.2-0.9,0.7-2.6,0.8c-2.2,0-4.4-0.7-6.1-2.1
		c-1.6-1.3-2.7-3.3-2.9-5.4C235.4,153,235.8,152.1,236.1,152.1z"/>
	<path class="st1" d="M234.6,110.4c-0.3,1-3.8,0.5-7.9,1s-7.4,1.6-7.9,0.8c-0.2-0.4,0.3-1.3,1.7-2.2c3.6-2.3,8-2.8,12-1.3
		C234,109.2,234.7,110,234.6,110.4z"/>
	<path class="st1" d="M266.5,113.3c-0.6,0.8-3,0-5.9-0.1s-5.3,0.5-5.9-0.3c-0.2-0.4,0.1-1.2,1.2-1.9c2.9-1.8,6.7-1.7,9.5,0.3
		C266.4,112.1,266.7,113,266.5,113.3z"/>
	<path class="st2" d="M197,135.9c-0.4-0.2-15.5-4.6-15,10.8s15.9,11.8,15.9,11.3S197,135.9,197,135.9z"/>
	<path class="st3" d="M192.9,152.3c-0.1,0-0.3,0.2-0.7,0.4c-0.6,0.3-1.3,0.3-2,0.1c-1.6-0.6-3.1-3.1-3.3-5.9
		c-0.1-1.3,0.1-2.6,0.6-3.9c0.3-1,1-1.8,2-2.1c0.6-0.2,1.3,0.1,1.6,0.7c0.2,0.4,0.1,0.7,0.2,0.8s0.3-0.3,0.2-0.9
		c-0.1-0.4-0.3-0.7-0.6-0.9c-0.4-0.3-1-0.4-1.5-0.4c-1.3,0.3-2.3,1.2-2.7,2.5c-0.6,1.4-0.9,2.8-0.8,4.3c0.2,3.1,1.9,6,4.1,6.5
		c0.8,0.2,1.8,0,2.4-0.5C192.9,152.7,193,152.4,192.9,152.3z"/>
	<path class="st1" d="M188.4,135.4c2.4-0.6,6.4,1.6,7.4,3.8s1.2,4.7,2.2,6.9s3.3,4.2,5.6,3.6c1.6-0.5,2.8-1.8,3.2-3.5
		c0.3-1.6,0.4-3.3,0.1-5c-0.9-7.2-2.4-14.3-2.7-21.6s0.7-14.8,4.6-21s10.8-10.7,18-10.1c4.8,0.4,9.2,2.9,13.9,3.6
		c5.7,0.8,11.5-1.2,15.7-5.2c0.5-0.5,2.9-2.1,2.9-2.1c0-0.4-0.4-3.6-1.6-4.8c-9.4-8.7-26.5-11.2-38.9-8s-24.2,12-29.6,23.6
		S185.4,123.5,188.4,135.4"/>
	<path class="st4" d="M271.9,97.3c0,0-59.2-19-84.8,32.2c0,0-3.8-12.8-3.8-19.7c0-4.6,2.7-31.9,30.9-40.5
		C214.1,69.2,256.5,53.1,271.9,97.3z"/>
	<path class="st1" d="M221,98.5c3.7,6,11.7,7.9,17.7,4.2c1-0.6,1.9-1.4,2.8-2.3c1.6,3.9,6,5.8,9.9,4.2c2.2-0.9,3.8-2.7,4.5-5
		c1.6,1.8,3.6,3.2,5.8,4.2c2.2,0.8,5.1,0.5,6.6-1.4s1.1-4.8-0.4-6.8c-1.6-1.8-3.7-3.2-6-4c-7-3.1-14.7-4.3-22.3-3.4
		c-7.6,1-14.9,4.7-19.6,10.7"/>
	<g class="st5">
		<path d="M271.9,97.3c-4.9-5.2-11.7-8.3-18.8-8.6c-17.5-0.8-50.1,9.1-66,40.7c0,0-3.8-12.8-3.8-19.7c0-4.6,2.7-31.9,30.9-40.5
			C214.1,69.2,256.5,53.1,271.9,97.3z"/>
	</g>
	<path class="st4" d="M189.6,123.4c8.8-13.4,20.9-24.5,34.5-33s36.1-16.9,51.6-21c4.7-1.2,9.5-2.3,14.3-1.5s9.4,4,10.6,8.7
		c1.5,5.8-8.9,14.9-13.8,18.4s-14.8,8.8-14.8,8.8s0.1-10.8-17.2-13.1C231.1,87.6,189.6,123.4,189.6,123.4z"/>
	<path class="st6" d="M238.1,79.2c0,0,8.5-4.7,17.1-5.8c-1.4-1.1-3-2-4.6-2.8c-4.7,0.8-9.1,2.3-13.3,4.5L238.1,79.2z"/>
	<path class="st4" d="M286.1,211.5l-18.8-4.1l-7.6-1.9l-6.4-9.9c0,0-3,17.6-14.4,27.1c-3.1,2.6-7.2,3.5-11.2,2.7
		c-2.6-0.5-5.6-1.2-7.8-1.8c-0.5-0.1-1-0.3-1.6-0.5c-8.2-3.1-15.1-9-19.3-16.7c-2.5-4.5-4.6-9.1-3.9-10.8l-8.9,18.5l-52.5,24.2
		L103.9,311l57.8,17.1l1.8,60l-10.9,75.6l163.4,0.1l-5.8-168.3"/>
	<path class="st1" d="M243.9,276.6c-0.3,0-0.7,0-1,0l-2.9-0.1l-10.4-0.4h-0.2V276c-0.2-4.5-0.4-9.9-0.6-15.6
		c-0.3-8.2-0.5-15.7-0.7-21.1c-0.1-2.7-0.1-4.8-0.1-6.4c0-0.7,0-1.3,0-1.7c0-0.2,0-0.4,0-0.6c0,0.2,0.1,0.4,0.1,0.6
		c0,0.5,0.1,1,0.1,1.7c0.1,1.6,0.2,3.8,0.3,6.4c0.2,5.5,0.5,12.9,0.9,21.1c0.2,5.7,0.4,11.1,0.5,15.6l-0.2-0.2l10.4,0.5l2.9,0.2
		C243.2,276.5,243.6,276.5,243.9,276.6z"/>
	<path class="st1" d="M235,252.3c0.2-0.2,0.5-0.3,0.8-0.3c1.3-0.1,2.6,0.6,3.2,1.8c0.3,0.6,0.4,1.2,0.3,1.8c-0.2,1.4-1.3,2.6-2.7,3
		c-1.4,0.3-2.9-0.2-3.8-1.4c-0.7-0.9-1-2.1-0.7-3.2c0.2-0.8,0.5-1.5,1.1-2c0.4-0.4,0.7-0.5,0.7-0.5s-0.2,0.2-0.5,0.6
		c-0.4,0.5-0.7,1.2-0.9,1.9c-0.2,1,0.1,2.1,0.7,2.8c0.8,1,2.1,1.4,3.3,1.2c1.2-0.3,2.1-1.3,2.3-2.6c0.2-1-0.2-2-1.1-2.6
		c-0.5-0.4-1.2-0.7-1.9-0.7C235.3,252.2,235,252.3,235,252.3z"/>
	<path class="st1" d="M233.2,231.2c0.2-0.2,0.5-0.3,0.8-0.4c0.8-0.2,1.7,0,2.4,0.4c0.5,0.3,1,0.7,1.3,1.2c0.4,0.6,0.6,1.3,0.6,1.9
		c-0.1,1.6-1.1,3-2.6,3.6c-1.6,0.4-3.2-0.2-4.2-1.5c-0.4-0.5-0.7-1.2-0.7-1.9c0-0.6,0.1-1.2,0.3-1.7c0.3-0.8,0.9-1.4,1.6-1.9
		c0.2-0.2,0.5-0.3,0.9-0.3c0,0-0.3,0.1-0.7,0.5c-0.6,0.5-1.1,1.1-1.3,1.9c-0.4,1.1-0.2,2.3,0.5,3.2c0.9,1.1,2.3,1.6,3.6,1.2
		c1.3-0.5,2.2-1.7,2.3-3.1c0.1-1.1-0.5-2.2-1.6-2.8c-0.7-0.4-1.5-0.6-2.2-0.5C233.5,231.1,233.2,231.2,233.2,231.2z"/>
	<path class="st1" d="M227.9,311.9c0,0,0.1,0,0.2-0.1l0.8-0.3c0.7-0.2,1.6-0.6,2.8-1.2c3.4-1.7,6.5-3.9,9.2-6.5
		c4-3.9,7.5-8.3,10.5-13.1c3.8-5.8,7.2-11.7,10.3-17.9c5.5-11.2,10.4-22.7,14.6-34.5c1.6-4.5,2.9-8.2,3.8-10.7l1-2.9
		c0.1-0.3,0.2-0.6,0.3-0.8c0-0.1,0.1-0.2,0.1-0.2c0,0.1,0,0.2-0.1,0.3c-0.1,0.2-0.1,0.4-0.2,0.8c-0.2,0.7-0.5,1.7-0.9,3
		c-0.8,2.6-2,6.2-3.6,10.8c-4.1,11.8-8.9,23.4-14.4,34.6c-3.1,6.2-6.5,12.1-10.3,17.9c-3,4.8-6.6,9.2-10.7,13.1
		c-2.8,2.6-5.9,4.8-9.4,6.5c-0.9,0.4-1.9,0.8-2.9,1.1l-0.8,0.2C228.1,311.9,228,311.9,227.9,311.9z"/>
	<path class="st7" d="M262.3,291.9c0.4,0,10.4-0.7,10.4-0.7s-4.1,7.3-8.4,10h-8.7L262.3,291.9z"/>
	<path class="st1" d="M226.2,333.9c0.2-0.2,0.4-0.3,0.6-0.4l1.7-1.2c1.4-1,3.5-2.5,6.1-4.4c5-3.8,11.7-9.5,18.8-16.1
		c3.6-3.3,7-6.4,9.9-9.3c2.6-2.6,5.1-5.4,7.3-8.3c1.5-2,2.8-4.1,4-6.3c0.4-0.8,0.7-1.4,0.9-1.8c0.1-0.2,0.2-0.4,0.4-0.6
		c-0.1,0.2-0.1,0.5-0.2,0.7c-0.2,0.4-0.4,1.1-0.8,1.9c-1.1,2.3-2.4,4.4-3.9,6.4c-2.2,3-4.6,5.8-7.3,8.4c-3,3-6.4,6.1-9.9,9.4
		c-7.1,6.5-13.8,12.2-18.9,16c-2.6,1.9-4.7,3.3-6.2,4.3c-0.8,0.5-1.3,0.8-1.7,1.1C226.6,333.7,226.4,333.8,226.2,333.9z"/>
	<path class="st1" d="M198.1,445c0,0,0-0.1,0.1-0.2s0.2-0.4,0.4-0.7c0.4-0.6,0.9-1.4,1.7-2.5c1.5-2.1,3.8-5.1,6.9-8.5
		c6.2-6.9,14.8-16.3,24.3-26.8l24.5-26.7l7.5-8l2-2.2l0.5-0.5l0.2-0.2c0,0,0,0.1-0.2,0.2l-0.5,0.6l-2,2.2l-7.3,8.1l-24.3,26.7
		l-24.4,26.7c-3.1,3.4-5.4,6.4-7,8.4c-0.8,1-1.4,1.9-1.8,2.4l-0.4,0.6C198.2,444.8,198.2,444.9,198.1,445z"/>
	<path class="st4" d="M284.8,211c0.9,1.3,20.2,3.4,24.9,8.2s52,40.8,52,40.8L328,305.3l-21.7-4.8L284.8,211z"/>
	<polygon class="st8" points="356,255.6 318.2,303.1 328.1,305.3 361.7,259.9 	"/>
	<path class="st1" d="M295.1,258.2c-0.2-0.5-0.3-1-0.4-1.6c-0.1-0.5-0.2-1.1-0.3-1.9s-0.2-1.6-0.3-2.5s-0.1-2-0.1-3.1s0-2.3,0.1-3.5
		c0.2-2.7,0.6-5.4,1.2-8c0.7-2.6,1.6-5.2,2.7-7.6c0.5-1.1,1-2.2,1.6-3.2s1.1-1.9,1.6-2.6s1-1.5,1.4-2.1c0.4-0.5,0.8-1,1.2-1.5
		c0.3-0.4,0.7-0.8,1.1-1.2c-0.3,0.5-0.6,0.9-0.9,1.3c-0.3,0.4-0.7,0.9-1.1,1.6s-0.9,1.3-1.4,2.1s-1,1.7-1.5,2.6s-1,2-1.5,3.1
		c-1.1,2.5-1.9,5-2.6,7.6c-0.6,2.6-1,5.2-1.3,7.9c-0.1,1.2-0.2,2.4-0.1,3.5s0,2.1,0.1,3s0.1,1.8,0.2,2.5s0.2,1.4,0.2,1.9
		C295.1,257.1,295.1,257.6,295.1,258.2z"/>
	<path class="st1" d="M310.2,295.5c-1.5-3-2.9-6.1-4.2-9.2c-1.4-3.1-2.6-6.2-3.7-9.4c1.5,3,2.9,6.1,4.2,9.2
		C308,289.1,309.2,292.3,310.2,295.5z"/>
	<path class="st1" d="M161.7,262.5c-0.1,0-0.9-1.5-2.4-3.7c-2-2.9-4.3-5.7-6.8-8.1c-2.6-2.5-5.3-4.7-8.3-6.6
		c-2.3-1.5-3.8-2.2-3.8-2.3c0.4,0.1,0.8,0.3,1.1,0.4c1,0.5,1.9,1,2.9,1.5c3.1,1.8,5.9,4,8.5,6.5s4.8,5.3,6.8,8.3
		c0.7,1.2,1.3,2.1,1.6,2.8C161.4,261.8,161.6,262.2,161.7,262.5z"/>
	<polygon class="st8" points="103.9,311 106.3,305.3 170.2,322.7 167.6,329.8 	"/>
	<path class="st7" d="M274.5,288.6h24.3v10l-31.1-0.2C267.7,298.4,272.5,292.6,274.5,288.6z"/>
	<g class="st9">
		<path d="M187.7,216.2c0.9,7.8,1.8,15.9,5.7,22.7s11.4,12.2,19.2,11.1c5.2-0.8,9.6-4.2,13.1-8.1s6.5-8.3,10.3-11.8
			c2.3,2.5,4.9,4.7,7.8,6.7c2.9,1.9,6.3,2.8,9.7,2.6c3.4-0.4,5.3-1.8,6.3-5c-3.6,1.1-5.6,0.9-9.2,0.3c-4-0.8-7.7-2.5-10.9-5
			c-2.1-1.7-2.9-4.2-5.6-4c-2.5,0.1-4.4,2.1-6.1,4c-2.6,3-5.6,5.8-8.7,8.4c-3,2.4-5.9,4-9.7,3.9c-6.3-0.1-11.4-5.1-14.9-10.3
			c-3.2-4.8-5.6-10.2-7-15.8"/>
	</g>
	<path class="st1" d="M261.4,206.5c0.1,0.2,0.1,0.4,0.1,0.6c0,0.4,0.1,0.9,0.2,1.6c0.1,1.4,0.3,3.4,0.4,6c0.1,6.6-0.5,13.1-1.9,19.6
		v0.2v0.2H260c-3.6,0.8-7.3,0.7-10.8-0.3c-2.9-0.8-5.6-2-8-3.7c-1.6-1.1-3.1-2.5-4.4-4c-0.3-0.4-0.7-0.8-0.9-1.3
		c-0.1-0.2-0.2-0.3-0.3-0.5c1.6,2.1,3.6,4,5.8,5.5c2.4,1.6,5.1,2.8,7.9,3.6c3.4,1,7,1.1,10.5,0.2l-0.2,0.2v-0.2
		c1.4-6.4,2-12.9,2-19.5c0-2.5-0.1-4.5-0.2-5.9c0-0.6-0.1-1.2-0.1-1.6C261.4,206.9,261.4,206.7,261.4,206.5z"/>
	<path class="st1" d="M231,226.2c-0.1,0.2-0.2,0.4-0.3,0.6c-0.3,0.6-0.7,1.1-1.1,1.6c-1.5,1.9-3.1,3.6-4.9,5.2
		c-1.1,1-2.4,2.1-3.7,3.2c-0.7,0.6-1.4,1.2-2.1,1.8c-0.8,0.6-1.6,1.1-2.5,1.6c-1.9,1-3.9,1.6-6,1.8c-2.3,0.2-4.6-0.3-6.6-1.5
		c-1.9-1.2-3.7-2.6-5.2-4.4c-1.4-1.6-2.7-3.2-3.9-4.9c-2-2.9-3.7-6-5.1-9.3c-0.9-2.2-1.7-4.5-2.2-6.8c-0.2-0.8-0.3-1.5-0.4-1.9
		c-0.1-0.2-0.1-0.4-0.1-0.7c0.1,0.2,0.2,0.4,0.2,0.6c0.1,0.4,0.3,1.1,0.5,1.9c0.7,2.3,1.5,4.5,2.4,6.7c1.4,3.2,3.1,6.3,5.1,9.2
		c1.2,1.7,2.5,3.3,3.9,4.9c1.4,1.7,3.1,3.1,5,4.2c1.9,1.1,4.1,1.6,6.3,1.4c2-0.2,4-0.8,5.8-1.7c0.8-0.4,1.7-1,2.4-1.5
		c0.7-0.6,1.4-1.2,2.1-1.7c1.4-1.1,2.6-2.2,3.7-3.2c1.8-1.5,3.5-3.2,5-5c0.5-0.6,0.9-1.2,1.2-1.5C230.7,226.6,230.8,226.4,231,226.2
		z"/>
	<path class="st2" d="M209.5,341.1l7.7-11.2c0,0,5.3-18.4,4.6-21s-3.1-12.2-2.5-12.3s6.3-2.3,9.4,5.4c1.9,4.8,2.6,11.1,2.8,15.2
		c0.1,1.9,1.7,3.4,3.6,3.3c0.2,0,0.4,0,0.5-0.1c5.3-1.1,14.2-2.8,16.3-2.3c3.1,0.7,5.8,4.6,6.1,5.9s-1.8,4.3-1.8,4.3
		s2.6,1.3,3.4,3.3c0.1,0.3,0.2,0.5,0.3,0.8c0.5,1.6,0.1,3.4-1.1,4.7L258,338c0,0,3.2,0.9,3.6,2.8c0.2,1.4,0.2,2.7-0.1,4.1l-3,3.1
		c0.9,0.8,1.4,1.9,1.6,3c0.2,1.7-4.4,6-4.4,6l-19.6,7l-7.8,2L209.5,341.1z"/>
	<path class="st3" d="M256.3,328.4c-2.2,0.6-4.5,1.1-6.8,1.5c-2.2,0.5-4.5,1-6.8,1.3c0.6-0.3,1.3-0.5,1.9-0.7
		c1.2-0.3,2.9-0.8,4.8-1.1s3.6-0.7,4.9-0.8C254.9,328.4,255.6,328.4,256.3,328.4z"/>
	<path class="st3" d="M258.1,338.1c-1.7,0.8-3.4,1.4-5.2,1.9c-1.7,0.6-3.5,1.1-5.3,1.4c1.7-0.8,3.4-1.4,5.2-1.9
		C254.5,338.9,256.2,338.4,258.1,338.1z"/>
	<path class="st3" d="M259.2,347.7c-1.8,1.1-3.6,2-5.5,2.7c-1.8,0.9-3.8,1.6-5.7,2.2c1.8-1.1,3.6-2,5.5-2.7
		C255.4,349,257.3,348.3,259.2,347.7z"/>
	<path class="st2" d="M164.3,410.6l72.1-48.4l-18.2-33L152.4,363l7.5-35.6l-44.7-13.2L104,375.1l0,0c-1.7,27.1,20,48.9,46.2,41.8
		l0,0C155.2,415.6,160,413.5,164.3,410.6z"/>
	<path class="st3" d="M142.9,382.2c-0.1-0.3-0.2-0.6-0.2-0.9c-0.1-0.8-0.2-1.7-0.2-2.5c0-2.8,0.6-5.7,1.9-8.2
		c1.3-2.5,3.1-4.7,5.4-6.4c0.7-0.5,1.4-1,2.2-1.3c0.3-0.2,0.6-0.3,0.9-0.4c0,0.1-1.2,0.7-2.8,2c-4.4,3.5-7.1,8.7-7.2,14.4
		C142.7,380.8,143,382.2,142.9,382.2z"/>
	<path class="st2" d="M328.1,305.3c0.5-0.6,51.4,30.4,51.4,30.4l16.3,74.4l23.5,8.6c0,0,7.3-82.7,1.8-95.6S359,263.9,359,263.9
		L328.1,305.3z"/>
	<path class="st3" d="M390.5,330c-1.1,1.7-2.6,3.1-4.4,4.2c-1.7,1.2-3.6,2-5.6,2.3c1.8-0.8,3.6-1.7,5.3-2.7
		C387.5,332.6,389,331.3,390.5,330z"/>
	<polygon class="st1" points="266.8,305.5 270.8,376.8 352.2,371.3 349.7,318.2 337.9,302.2 	"/>
	<path class="st4" d="M248.3,378.4c0.2,1.4,7.1,66,7.1,66l121.1-8.4l20.5-2.8l-9.5-60.2l-14.5-3.5L248.3,378.4z"/>
	<path class="st8" d="M373.1,369.6l-124.8,8.8c0.2,1.4,7.1,66,7.1,66l126.1-8.8L373.1,369.6z"/>
	<polygon class="st10" points="340,372.1 270.8,376.8 266.8,305.5 337.9,302.2 	"/>
	<polygon class="st1" points="292.6,304.3 294.1,326.3 297.8,324.2 299.8,326.3 302.4,324.2 306.3,326.3 306.3,303.7 	"/>
	<polygon class="st4" points="318.2,393.6 317.9,373.6 301.7,374.7 303.4,395 	"/>
	
		<rect x="344.9" y="405.3" transform="matrix(0.9955 -9.445855e-02 9.445855e-02 0.9955 -37.818 35.7331)" class="st7" width="27.3" height="24.1"/>
	<path class="st1" d="M373.2,428.1c0-0.2-0.1-0.3-0.1-0.5c0-0.3-0.1-0.8-0.1-1.3c-0.1-1.2-0.3-2.8-0.5-4.9c-0.4-4.2-1-10.2-1.8-17.4
		l0.2,0.2l-27.1,2.6c-0.1,0.1,0.4-0.5,0.2-0.3l0,0v0.2v0.2v0.4l0.1,0.8l0.1,1.6c0.1,1.1,0.2,2.1,0.3,3.2c0.2,2.1,0.4,4.2,0.6,6.2
		c0.4,4,0.7,7.9,1,11.4l-0.2-0.2l19.6-1.7l5.6-0.5l1.5-0.1C372.8,428.1,373,428.1,373.2,428.1c-0.2,0-0.4,0.1-0.5,0.1l-1.4,0.2
		l-5.5,0.6l-19.7,2h-0.2v-0.2c-0.4-3.5-0.7-7.4-1.1-11.4c-0.2-2-0.4-4.1-0.6-6.2c-0.1-1.1-0.2-2.1-0.3-3.2c0-0.5-0.1-1.1-0.2-1.6
		l-0.1-0.8v-0.4V407v-0.2l0,0c-0.2,0.2,0.3-0.4,0.2-0.3l27.1-2.5h0.2v0.2c0.6,7.2,1.2,13.2,1.5,17.5c0.2,2,0.3,3.7,0.4,4.8
		c0,0.5,0.1,1,0.1,1.3C373.2,427.9,373.2,428,373.2,428.1z"/>
	<path class="st1" d="M368.8,409.8c0,0.1-4.7,0.8-10.6,1.4c-3.5,0.5-7.1,0.8-10.6,0.9c0-0.1,4.7-0.8,10.6-1.4
		S368.8,409.7,368.8,409.8z"/>
	<path class="st1" d="M368.7,413.9c-0.9,0.3-1.9,0.6-2.9,0.7c-1.8,0.4-4.4,0.8-7.2,1.1s-5.4,0.5-7.2,0.6c-1,0.1-2,0.1-3,0
		c1-0.2,2-0.3,3-0.3c1.8-0.2,4.4-0.4,7.2-0.7s5.3-0.7,7.2-1C366.7,414.1,367.7,414,368.7,413.9z"/>
	<path class="st1" d="M369.8,422.8c-0.9,0.3-1.9,0.6-2.9,0.7c-1.8,0.4-4.4,0.8-7.2,1.1s-5.4,0.5-7.2,0.6c-1,0.1-2,0.1-3,0
		c1-0.2,2-0.3,3-0.3c1.8-0.2,4.4-0.4,7.2-0.7s5.3-0.7,7.2-1C367.8,423,368.8,422.9,369.8,422.8z"/>
	<path class="st1" d="M368.4,418.3c-3.3,0.7-6.6,1.3-9.9,1.7c-3.3,0.6-6.6,0.9-10,1.2c3.3-0.7,6.6-1.3,9.9-1.7
		C361.8,418.9,365.1,418.5,368.4,418.3z"/>
	<path class="st2" d="M392.4,455.5c0,0,22.4-14.8,24.1-22.4s2.8-14.4,2.8-14.4l-23.9-9.9l2.4,8.6c0,0-8.6,5.1-9.4,11.3
		c-0.6,4.1-11.6,11.1-11.6,11.1l0,0c-1.9-2.3-4.7-3.5-7.6-3.3l-9.3,0.7l6.3,14.2L392.4,455.5z"/>
	<path class="st3" d="M401.1,435.2c-0.3,0.2-0.7,0.3-1,0.4c-0.7,0.2-1.7,0.5-3,0.9c-1.4,0.5-2.7,1.3-3.9,2.3c-1.4,1.2-3,2.2-4.8,3
		c-3.2,1.4-6.8,1.7-10.1,0.9c-0.6-0.1-1.2-0.3-1.7-0.6c-0.4-0.2-0.7-0.7-0.6-1.2c0-0.3,0.2-0.6,0.5-0.7c0.2-0.1,0.3,0,0.3,0
		s-0.1,0-0.3,0.1c-0.2,0.2-0.3,0.4-0.4,0.7c0,0.4,0.2,0.8,0.6,1c0.5,0.3,1.1,0.4,1.6,0.5c3.3,0.7,6.7,0.3,9.9-1
		c1.7-0.8,3.3-1.7,4.7-2.9c1.2-1,2.6-1.7,4.1-2.2c1.3-0.4,2.3-0.5,3-0.7C400.4,435.3,400.7,435.2,401.1,435.2z"/>
	<path class="st3" d="M385.7,446.7c0,0.1-1.1-0.6-3-1.4c-2.5-1-5.1-1.7-7.8-1.9c-0.8-0.1-1.5-0.1-2.3-0.1h-0.1l-0.1-0.1
		c-1.2-1.8-2.6-3.5-4.1-4.9c-1.2-1.1-2-1.6-2-1.7s0.2,0.1,0.6,0.3c0.5,0.3,1.1,0.7,1.6,1.1c1.7,1.4,3.2,3,4.4,4.9l-0.2-0.1
		c0.8,0,1.5,0,2.3,0.1c2.7,0.3,5.4,1,7.9,2.1c0.7,0.3,1.5,0.7,2.2,1.2C385.2,446.3,385.4,446.4,385.7,446.7z"/>
	<path class="st3" d="M391.7,442.6c0,0.1-1.5,0.7-3.3,1.7s-3,2-3.1,1.9C386.9,444.3,389.2,443,391.7,442.6L391.7,442.6z"/>
	<path class="st3" d="M403.8,416c0,0.2-1.6,0-3.3,0.5s-3,1.4-3.1,1.2C399,416,401.5,415.3,403.8,416z"/>
</g>
<g id="freepik--Plant--inject-377">
	<path class="st4" d="M77.8,407.5c2.9,3.5,7.9,1.8,10.1-0.7s2.8-5.9,3.5-9.1c1.4-7.4,2.8-15.1,0.6-22.3c-0.6-2.2-1.7-4.2-3.3-5.8
		c-1.7-1.6-4.1-2.1-6.2-1.5c-2.5,0.9-3.9,3.5-4.8,6c-2.8,7.3-3.8,15.2-3.2,23C74.7,400.8,75.4,404.6,77.8,407.5"/>
	<g class="st9">
		<path d="M77.8,407.5c2.9,3.5,7.9,1.8,10.1-0.7s2.8-5.9,3.5-9.1c1.4-7.4,2.8-15.1,0.6-22.3c-0.6-2.2-1.7-4.2-3.3-5.8
			c-1.7-1.6-4.1-2.1-6.2-1.5c-2.5,0.9-3.9,3.5-4.8,6c-2.8,7.3-3.8,15.2-3.2,23C74.7,400.8,75.4,404.6,77.8,407.5"/>
	</g>
	<path class="st4" d="M89.2,425.5c4.1-2.6,9.1-3.3,13.9-3c2.6,0.2,5.3,0.7,7.2,2.5s2.5,5.1,0.7,6.9c-1.2,1-2.7,1.5-4.3,1.5
		c-3.7,0.3-7.9,0-10.7,2.5c-1.6,1.4-2.5,3.6-4.5,4.5c-2,0.7-4.3-0.1-5.5-1.9c-1.1-1.8-1.5-3.9-1.1-6C85.3,429.6,86.8,427,89.2,425.5
		z"/>
	<path class="st4" d="M71.1,413.5c2.5-3.6,2.6-8.6,1-12.7s-4.8-7.4-8.4-10.1c-4.2-3.1-8.9-5.4-14-6.6c-2-0.6-4-0.8-6.1-0.5
		c-2,0.3-3.8,1.6-4.6,3.5c-1.2,2.8,0.5,5.9,2.2,8.4c3,4.4,6.2,8.6,9.8,12.5c2.9,3.1,6.2,6.2,10.3,7.4s8.2,0.6,10.1-2.3"/>
	<path class="st1" d="M82.6,463.8c0.1-0.6,0.1-1.1,0.1-1.7c0-1.2,0-2.8,0-4.7c0-2.3,0.2-4.6,0.4-6.9c0.4-2.8,0.9-5.5,1.8-8.2
		c0.8-2.7,1.9-5.2,3.4-7.6c1.2-1.9,2.9-3.5,4.8-4.8c1.3-0.8,2.7-1.4,4.2-1.8c0.6-0.1,1.1-0.2,1.7-0.4c-0.6,0-1.2,0-1.7,0.1
		c-1.6,0.3-3.1,0.8-4.4,1.6c-2,1.2-3.8,2.9-5.1,4.8c-1.6,2.4-2.8,5-3.6,7.8c-0.8,2.7-1.4,5.5-1.7,8.4c-0.2,2.3-0.3,4.6-0.3,7
		c0,2,0.1,3.6,0.2,4.7C82.4,462.6,82.5,463.2,82.6,463.8z"/>
	<path class="st1" d="M82.6,460.2c0-0.3,0-0.5,0-0.8c0-0.6-0.1-1.3-0.2-2.2c-0.2-2-0.4-4.8-0.6-8.3c-0.4-7-0.7-16.7-0.5-27.4
		s0.9-20.4,1.7-27.3c0.2-1.8,0.4-3.3,0.6-4.7s0.3-2.6,0.5-3.5s0.2-1.6,0.3-2.2c0.1-0.3,0.1-0.5,0.1-0.8c-0.1,0.2-0.2,0.5-0.2,0.8
		c-0.1,0.6-0.3,1.3-0.5,2.2s-0.4,2.1-0.6,3.5s-0.5,2.9-0.7,4.7c-1.1,9.1-1.8,18.2-1.9,27.4c-0.2,10.7,0.1,20.4,0.7,27.4
		c0.3,3.5,0.6,6.3,0.9,8.3c0.1,0.9,0.2,1.6,0.3,2.2C82.5,459.7,82.5,459.9,82.6,460.2z"/>
	<path class="st1" d="M81,441.5c0-0.8-0.1-1.6-0.2-2.4c-0.2-1.5-0.6-3.7-1.3-6.3c-0.8-3.1-1.8-6.1-2.9-9.1c-1.4-3.7-3-7.2-4.9-10.6
		c-3.3-6.3-7.7-12-13-16.7c-0.9-0.8-1.9-1.6-2.9-2.2c-0.4-0.3-0.8-0.6-1.2-0.9l-1.1-0.6c-0.7-0.4-1.4-0.8-2.1-1.1
		c-0.1,0.2,3,1.6,7,5.2c5.1,4.8,9.4,10.4,12.7,16.7c1.9,3.4,3.5,6.9,4.9,10.5c1.3,3.3,2.3,6.4,3,9s1.2,4.7,1.5,6.2
		C80.6,440,80.8,440.8,81,441.5z"/>
</g>
</svg>
